<?xml version="1.0" standalone="no"?>
<!DOCTYPE svg PUBLIC "-//W3C//DTD SVG 20010904//EN"
 "http://www.w3.org/TR/2001/REC-SVG-20010904/DTD/svg10.dtd">
<svg version="1.0" xmlns="http://www.w3.org/2000/svg"
 width="2493.000000pt" height="2493.000000pt" viewBox="0 0 2493.000000 2493.000000"
 preserveAspectRatio="xMidYMid meet">
<metadata>
Created by potrace 1.14, written by Peter Selinger 2001-2017
</metadata>
<g transform="translate(0.000000,2493.000000) scale(0.100000,-0.100000)"
fill="#000000" stroke="none">
<path d="M460 12465 l0 -12466 62 34 c35 19 119 64 188 100 1453 757 3040
1619 3202 1739 445 328 727 1107 808 2233 7 105 10 2240 10 7158 0 4474 3
7007 9 7007 6 0 3079 -1854 6830 -4120 3752 -2267 6828 -4123 6836 -4126 13
-5 15 621 15 5560 0 3061 -2 5566 -5 5566 -6 0 -4758 -2859 -4768 -2870 -5 -4
166 -135 380 -290 467 -341 1015 -761 1099 -845 224 -224 294 -528 203 -890
-25 -99 -97 -285 -110 -285 -7 0 -14526 8814 -14721 8937 l-38 23 0 -12465z"/>
<path d="M24395 24895 c-33 -18 -364 -192 -735 -388 -1369 -720 -2492 -1332
-2644 -1441 -87 -62 -233 -218 -306 -327 -278 -416 -451 -1067 -510 -1914 -7
-102 -10 -2396 -10 -7157 0 -4182 -3 -7008 -9 -7008 -5 0 -3079 1854 -6832
4121 -3752 2267 -6828 4123 -6836 4126 -11 4 -13 -936 -13 -5562 0 -4450 3
-5566 13 -5562 39 16 4762 2866 4761 2873 0 5 -183 142 -406 304 -478 348
-988 740 -1074 825 -154 152 -244 372 -244 594 0 92 25 250 56 351 33 109 84
230 96 230 6 0 458 -272 1006 -605 549 -333 3866 -2348 7372 -4478 l6375
-3872 3 6233 c1 3429 1 9036 0 12461 l-3 6228 -60 -32z"/>
</g>
</svg>
